<svg width="21" height="20" viewBox="0 0 21 20" fill="none" xmlns="http://www.w3.org/2000/svg">
<path d="M16.9688 10.9375L15.9524 11.9538L17.8075 13.8125H11.9375C11.175 13.8125 10.4437 14.1154 9.90457 14.6546C9.3654 15.1937 9.0625 15.925 9.0625 16.6875C9.0625 17.45 9.3654 18.1813 9.90457 18.7204C10.4437 19.2596 11.175 19.5625 11.9375 19.5625H13.375V18.125H11.9375C11.5563 18.125 11.1906 17.9735 10.921 17.704C10.6515 17.4344 10.5 17.0687 10.5 16.6875C10.5 16.3063 10.6515 15.9406 10.921 15.671C11.1906 15.4015 11.5563 15.25 11.9375 15.25H17.8075L15.951 17.1094L16.9688 18.125L20.5625 14.5312L16.9688 10.9375Z" fill="#263057"/>
<path d="M6.1875 13.8125H1.875L1.87284 2.96369L10.091 8.65331C10.2112 8.73646 10.3539 8.78101 10.5 8.78101C10.6461 8.78101 10.7888 8.73646 10.909 8.65331L19.125 2.96656V9.5H20.5625V2.3125C20.5621 1.93137 20.4105 1.56596 20.141 1.29645C19.8715 1.02695 19.5061 0.875381 19.125 0.875H1.875C1.49412 0.875 1.12882 1.02615 0.859296 1.29527C0.589774 1.56439 0.438071 1.92947 0.4375 2.31034V13.8125C0.43807 14.1936 0.589704 14.5589 0.859164 14.8283C1.12862 15.0978 1.49393 15.2494 1.875 15.25H6.1875V13.8125ZM17.543 2.3125L10.5 7.1885L3.45697 2.3125H17.543Z" fill="#263057"/>
</svg>
