<svg width="68" height="68" viewBox="0 0 68 68" fill="none" xmlns="http://www.w3.org/2000/svg">
<path d="M53.6914 41.8904C52.3569 39.1081 47.5827 35.2462 42.9701 31.5147C40.3974 29.435 37.9664 27.4687 36.4166 25.9189C36.0284 25.5279 35.4476 25.4032 34.9348 25.5874C33.98 25.9331 33.3906 26.1994 32.926 26.4062C32.2177 26.7235 31.9797 26.8312 31.0248 26.9275C30.6026 26.97 30.223 27.1967 29.9878 27.548C27.9846 30.5427 25.9106 30.2877 24.5251 29.8232C24.0831 29.6759 24.0038 29.486 23.9613 29.3047C23.6638 28.0609 25.157 25.1652 27.0921 23.23C31.6963 18.623 34.0706 17.4697 39.0856 19.711C44.7749 22.2552 50.4756 24.2472 50.5323 24.267C51.2775 24.5247 52.0793 24.1337 52.3371 23.3942C52.5921 22.6547 52.2039 21.8472 51.4644 21.5895C51.4077 21.5697 45.8204 19.6175 40.2444 17.1212C33.7476 14.217 30.1832 16.1295 25.0917 21.224C23.1537 23.162 20.5214 27.0832 21.2014 29.9592C21.4932 31.1832 22.3547 32.0899 23.6352 32.512C26.8454 33.5717 29.775 32.5573 31.9567 29.6617C32.8577 29.5229 33.3479 29.3189 34.0845 28.9874C34.3508 28.8684 34.6625 28.7296 35.0762 28.5624C36.6969 30.0839 38.8842 31.8547 41.1877 33.7162C45.3527 37.085 50.076 40.9044 51.1385 43.1144C51.6627 44.2052 51.0987 44.9164 50.7162 45.2422C50.1552 45.7239 49.3874 45.8769 48.9709 45.585C48.5119 45.2705 47.9142 45.2507 47.4409 45.534C46.9649 45.8172 46.6987 46.3528 46.7582 46.9025C46.8544 47.8035 46.0299 48.3192 45.6729 48.4977C44.7662 48.9567 43.8199 48.8774 43.4657 48.5487C43.069 48.1804 42.4995 48.0727 41.9952 48.2597C41.4909 48.4495 41.1395 48.9142 41.0885 49.4525C41.0035 50.3817 40.315 51.2743 39.4168 51.6228C38.9833 51.787 38.3543 51.8863 37.7905 51.3705C37.4392 51.0533 36.9518 50.9313 36.4957 51.0418C36.0339 51.1551 35.6627 51.4895 35.5012 51.9343C35.4474 52.076 35.3255 52.416 33.9995 52.416C33.056 52.416 31.3588 51.7785 30.5287 51.2288C29.5342 50.5743 23.298 45.922 17.9119 41.4113C17.1554 40.7738 15.8464 39.4081 14.6904 38.2011C13.6647 37.1301 12.7269 36.1583 12.2452 35.7503C11.6417 35.2403 10.7492 35.3168 10.2477 35.9175C9.74344 36.5153 9.81702 37.4107 10.4149 37.915C10.8542 38.2862 11.7042 39.1843 12.6419 40.1618C13.9057 41.4821 15.2117 42.8478 16.0902 43.5845C21.3659 48.0017 27.7069 52.7703 28.9704 53.6003C30.0132 54.286 32.2599 55.2493 33.9997 55.2493C35.3964 55.2493 36.4704 54.9291 37.2154 54.303C38.2127 54.6913 39.3462 54.694 40.4369 54.269C41.7262 53.7703 42.7857 52.7645 43.3864 51.5463C44.5027 51.7843 45.7807 51.617 46.9422 51.0335C48.0785 50.4612 48.9 49.5857 49.308 48.5627C50.4357 48.6222 51.5973 48.2228 52.5578 47.3983C54.1844 46.0072 54.6319 43.8426 53.6914 41.8904Z" fill="#6984F0"/>
<path d="M28.3337 18.4162H15.5837C14.8017 18.4162 14.167 19.0509 14.167 19.8329C14.167 20.6149 14.8017 21.2496 15.5837 21.2496H28.3337C29.1157 21.2496 29.7504 20.6149 29.7504 19.8329C29.7504 19.0509 29.1157 18.4162 28.3337 18.4162Z" fill="#6984F0"/>
<path d="M57.8422 38.8757C57.403 38.2269 56.5247 38.0484 55.876 38.4904L51.7337 41.2727C51.0849 41.709 50.912 42.5902 51.3484 43.2389C51.6232 43.6442 52.0709 43.8652 52.5271 43.8652C52.7963 43.8652 53.0711 43.7887 53.3148 43.6244L57.4571 40.8421C58.1057 40.4057 58.2785 39.5246 57.8422 38.8757Z" fill="#6984F0"/>
<path d="M49.0477 45.6361C48.0334 44.8371 43.4972 40.1933 40.6922 37.2693C40.151 36.7026 39.2529 36.6828 38.689 37.2268C38.1223 37.768 38.1053 38.6661 38.6465 39.23C39.3747 39.9893 45.7978 46.6845 47.291 47.8632C47.5488 48.0672 47.8605 48.1664 48.1665 48.1664C48.583 48.1664 48.9995 47.9794 49.2828 47.6252C49.7674 47.0131 49.6626 46.1206 49.0477 45.6361Z" fill="#6984F0"/>
<path d="M43.3871 48.4779C41.6899 47.1207 37.4258 42.5902 36.4624 41.5419C35.9297 40.9639 35.0372 40.9299 34.4592 41.4569C33.884 41.9867 33.8444 42.8849 34.3742 43.4601C34.4252 43.5139 39.5139 49.0078 41.6162 50.6908C41.8769 50.8976 42.1914 50.9996 42.5002 50.9996C42.9139 50.9996 43.3275 50.8154 43.608 50.4698C44.0955 49.8577 43.9963 48.9652 43.3871 48.4779Z" fill="#6984F0"/>
<path d="M37.7488 51.3311C35.7286 49.6283 31.5948 45.2281 30.7873 44.3639C30.2518 43.7916 29.3536 43.7604 28.7841 44.2959C28.2118 44.8314 28.1834 45.7267 28.7161 46.2991C29.8778 47.5429 33.8331 51.7363 35.9213 53.4986C36.1876 53.7224 36.5106 53.8329 36.8336 53.8329C37.2359 53.8329 37.6383 53.6601 37.9188 53.3286C38.4231 52.7279 38.3466 51.8354 37.7488 51.3311Z" fill="#6984F0"/>
<path d="M16.558 15.9711C14.1298 13.6704 4.42 12.9252 1.50171 12.7524C1.09942 12.7326 0.728211 12.8657 0.444922 13.1349C0.1615 13.4012 0 13.7752 0 14.1662V39.6662C0 40.4482 0.634711 41.0829 1.41671 41.0829H9.91671C10.5287 41.0829 11.0727 40.6891 11.2625 40.1054C11.4693 39.4707 16.3512 24.4881 16.9943 17.1214C17.0312 16.6907 16.8725 16.2657 16.558 15.9711ZM8.8825 38.2496H2.83329V15.6849C7.3865 16.0447 12.2995 16.8267 14.0845 17.6937C13.3337 23.8987 9.9365 34.9232 8.8825 38.2496Z" fill="#6984F0"/>
<path d="M66.583 15.5829C55.4593 15.5829 49.2883 18.4304 49.0305 18.5494C48.6622 18.7222 48.3873 19.0424 48.274 19.4306C48.1607 19.8188 48.2173 20.2353 48.4298 20.5809C50.1808 23.4001 55.6633 39.0571 56.7173 42.8764C56.8873 43.4912 57.4455 43.9162 58.083 43.9162H66.583C67.365 43.9162 67.9997 43.2815 67.9997 42.4995V16.9995C67.9997 16.2147 67.365 15.5829 66.583 15.5829ZM65.1664 41.0829H59.1427C57.7997 36.7082 53.833 25.3012 51.6202 20.5866C53.782 19.8528 58.4259 18.5919 65.1664 18.4333V41.0829Z" fill="#6984F0"/>
</svg>
