<svg width="26" height="25" viewBox="0 0 26 25" fill="none" xmlns="http://www.w3.org/2000/svg">
<path d="M13 0C6.10742 0 0.52002 5.5874 0.52002 12.48C0.52002 19.3726 6.10742 24.96 13 24.96C19.8926 24.96 25.48 19.3726 25.48 12.48C25.48 5.5874 19.8926 0 13 0ZM17.7996 14.0803C17.7996 14.0803 18.9033 15.1697 19.175 15.6754C19.1828 15.6858 19.1867 15.6962 19.1893 15.7014C19.2998 15.8873 19.3258 16.0316 19.2712 16.1395C19.1802 16.3189 18.8682 16.4073 18.7616 16.4151H16.8116C16.6764 16.4151 16.393 16.38 16.0498 16.1434C15.7859 15.9588 15.5259 15.6559 15.2724 15.3608C14.8941 14.9214 14.5665 14.5418 14.2363 14.5418C14.1944 14.5417 14.1527 14.5483 14.1128 14.5613C13.8632 14.6419 13.5434 14.9981 13.5434 15.9471C13.5434 16.2435 13.3094 16.4138 13.1443 16.4138H12.2512C11.947 16.4138 10.3623 16.3072 8.95832 14.8265C7.23972 13.013 5.69272 9.3756 5.67972 9.3418C5.58222 9.1065 5.78372 8.9804 6.00342 8.9804H7.97292C8.23552 8.9804 8.32132 9.1403 8.38112 9.282C8.45132 9.4471 8.70872 10.1036 9.13122 10.842C9.81632 12.0458 10.2362 12.5346 10.5729 12.5346C10.6361 12.5339 10.6981 12.5178 10.7536 12.4878C11.193 12.2434 11.1111 10.6769 11.0916 10.3519C11.0916 10.2908 11.0903 9.6512 10.8654 9.3444C10.7042 9.1221 10.4299 9.0376 10.2635 9.0064C10.3309 8.91346 10.4196 8.83811 10.5222 8.7867C10.8238 8.6359 11.3672 8.6138 11.9067 8.6138H12.207C12.792 8.6216 12.9428 8.6593 13.1547 8.7126C13.5837 8.8153 13.5928 9.0922 13.5551 10.0399C13.5434 10.309 13.5317 10.6132 13.5317 10.972C13.5317 11.05 13.5278 11.1332 13.5278 11.2216C13.5148 11.7039 13.4992 12.2512 13.8398 12.4761C13.8842 12.504 13.9356 12.5188 13.988 12.519C14.1063 12.519 14.4625 12.519 15.4271 10.8641C15.7246 10.3314 15.9831 9.77792 16.2006 9.2079C16.2201 9.1741 16.2773 9.0701 16.3449 9.0298C16.3948 9.00437 16.4501 8.99143 16.5061 8.9921H18.8214C19.0736 8.9921 19.2465 9.0298 19.279 9.1273C19.3362 9.282 19.2686 9.7539 18.2117 11.1852L17.7398 11.8079C16.7817 13.0637 16.7817 13.1274 17.7996 14.0803Z" fill="white"/>
</svg>
