<svg width="68" height="68" viewBox="0 0 68 68" fill="none" xmlns="http://www.w3.org/2000/svg">
<path d="M46.5791 30.5489H26.6617V21.4361C26.6617 20.0955 27.1907 18.8381 28.1512 17.8959C29.1111 16.954 30.3779 16.455 31.7208 16.4747C34.4039 16.5255 36.5867 18.7988 36.5867 21.542V22.2933C36.5867 24.9052 38.7117 27.0301 41.3235 27.0301C43.9354 27.0301 46.0603 24.9051 46.0603 22.2933V21.4361C46.0603 17.5592 44.5393 13.9177 41.7776 11.1827C39.0506 8.48194 35.4506 7 31.6258 7C31.5781 7 31.5299 7.00032 31.482 7.00063C23.6004 7.07699 17.188 13.6277 17.188 21.6029V30.5489H16.6692C14.0947 30.5489 12 32.6435 12 35.2181V56.3308C12.0001 58.9054 14.0947 61 16.6693 61H46.5791C49.1536 61 51.2483 58.9054 51.2483 56.3308V35.2181C51.2482 32.6435 49.1536 30.5489 46.5791 30.5489ZM19.8948 21.6029C19.8948 15.1057 25.1045 9.76929 31.5081 9.70717C31.5472 9.70686 31.586 9.70664 31.6249 9.70664C34.7316 9.70664 37.6568 10.9112 39.8729 13.1058C42.1173 15.3286 43.3533 18.2869 43.3533 21.436V22.2933C43.3533 23.4126 42.4426 24.3233 41.3233 24.3233C40.2039 24.3233 39.2932 23.4126 39.2932 22.2933V21.542C39.2932 17.3343 35.919 13.8471 31.7719 13.7685C29.6937 13.7285 27.7382 14.5087 26.2554 15.9638C24.7719 17.4195 23.9549 19.3628 23.9549 21.4364V30.549H19.8948V21.6029V21.6029ZM48.5414 56.3308C48.5414 57.4128 47.6611 58.2932 46.579 58.2932H16.6693C15.5873 58.2932 14.7069 57.4129 14.7069 56.3308V35.2181C14.7069 34.1361 15.5872 33.2556 16.6693 33.2556H46.5791C47.6611 33.2556 48.5416 34.136 48.5416 35.2181V56.3308H48.5414Z" fill="#6984F0"/>
<path d="M31.6242 35.9173C28.291 35.9173 25.5791 38.6291 25.5791 41.9624C25.5791 43.6741 26.3101 45.3002 27.5641 46.4391V54.2782C27.5641 55.0255 28.17 55.6315 28.9175 55.6315H34.331C35.0785 55.6315 35.6844 55.0255 35.6844 54.2782V46.4391C36.9384 45.3002 37.6694 43.6741 37.6694 41.9624C37.6693 38.6291 34.9575 35.9173 31.6242 35.9173ZM33.5491 44.6888C33.1907 44.9426 32.9776 45.3544 32.9776 45.7935V52.9248H30.2709V45.7935C30.2709 45.3544 30.0578 44.9426 29.6994 44.6888C28.8144 44.0622 28.286 43.0431 28.286 41.9623C28.286 40.1215 29.7835 38.624 31.6244 38.624C33.4652 38.624 34.9628 40.1215 34.9628 41.9623C34.9625 43.043 34.4341 44.0622 33.5491 44.6888Z" fill="#6984F0"/>
<path d="M55.8905 29.8167L51.1632 27.0874C50.516 26.7137 49.6883 26.9354 49.3144 27.5828C48.9406 28.2301 49.1624 29.0576 49.8098 29.4315L54.5371 32.1608C54.7502 32.2838 54.9829 32.3425 55.2125 32.3425C55.6803 32.3425 56.1352 32.0997 56.3858 31.6655C56.7596 31.0181 56.5377 30.1905 55.8905 29.8167Z" fill="#6984F0"/>
<path d="M50.4877 24.1994C50.7172 24.1994 50.95 24.1408 51.1631 24.0178L55.8905 21.2886C56.5378 20.9149 56.7596 20.0872 56.3858 19.4398C56.0122 18.7925 55.1843 18.5706 54.5371 18.9444L49.8098 21.6737C49.1624 22.0473 48.9406 22.8751 49.3144 23.5224C49.5651 23.9566 50.02 24.1994 50.4877 24.1994Z" fill="#6984F0"/>
</svg>
