<svg width="80" height="68" viewBox="0 0 80 68" fill="none" xmlns="http://www.w3.org/2000/svg">
<path d="M16.25 29.8056H3.75C3.41848 29.8056 3.10054 29.6741 2.86612 29.4398C2.6317 29.2056 2.5 28.888 2.5 28.5567C2.5 28.2255 2.6317 27.9078 2.86612 27.6736C3.10054 27.4394 3.41848 27.3078 3.75 27.3078H16.25C16.5815 27.3078 16.8995 27.4394 17.1339 27.6736C17.3683 27.9078 17.5 28.2255 17.5 28.5567C17.5 28.888 17.3683 29.2056 17.1339 29.4398C16.8995 29.6741 16.5815 29.8056 16.25 29.8056Z" fill="#6984F0"/>
<path d="M16.25 39.7972H3.75C3.41848 39.7972 3.10054 39.6656 2.86612 39.4314C2.6317 39.1971 2.5 38.8795 2.5 38.5483C2.5 38.217 2.6317 37.8994 2.86612 37.6651C3.10054 37.4309 3.41848 37.2993 3.75 37.2993H16.25C16.5815 37.2993 16.8995 37.4309 17.1339 37.6651C17.3683 37.8994 17.5 38.217 17.5 38.5483C17.5 38.8795 17.3683 39.1971 17.1339 39.4314C16.8995 39.6656 16.5815 39.7972 16.25 39.7972Z" fill="#6984F0"/>
<path d="M16.25 34.801H10C9.66848 34.801 9.35054 34.6694 9.11612 34.4352C8.8817 34.2009 8.75 33.8833 8.75 33.5521C8.75 33.2208 8.8817 32.9032 9.11612 32.6689C9.35054 32.4347 9.66848 32.3031 10 32.3031H16.25C16.5815 32.3031 16.8995 32.4347 17.1339 32.6689C17.3683 32.9032 17.5 33.2208 17.5 33.5521C17.5 33.8833 17.3683 34.2009 17.1339 34.4352C16.8995 34.6694 16.5815 34.801 16.25 34.801Z" fill="#6984F0"/>
<path d="M7.5 47.2906H5C4.66848 47.2906 4.35054 47.159 4.11612 46.9248C3.8817 46.6906 3.75 46.3729 3.75 46.0417C3.75 45.7104 3.8817 45.3928 4.11612 45.1586C4.35054 44.9243 4.66848 44.7928 5 44.7928H7.5C7.83152 44.7928 8.14946 44.9243 8.38388 45.1586C8.6183 45.3928 8.75 45.7104 8.75 46.0417C8.75 46.3729 8.6183 46.6906 8.38388 46.9248C8.14946 47.159 7.83152 47.2906 7.5 47.2906Z" fill="#6984F0"/>
<path d="M11.25 54.784H10C9.66848 54.784 9.35054 54.6524 9.11612 54.4182C8.8817 54.184 8.75 53.8663 8.75 53.5351C8.75 53.2039 8.8817 52.8862 9.11612 52.652C9.35054 52.4178 9.66848 52.2862 10 52.2862H11.25C11.5815 52.2862 11.8995 52.4178 12.1339 52.652C12.3683 52.8862 12.5 53.2039 12.5 53.5351C12.5 53.8663 12.3683 54.184 12.1339 54.4182C11.8995 54.6524 11.5815 54.784 11.25 54.784Z" fill="#6984F0"/>
<path d="M17.5 47.2906H11.25C10.9185 47.2906 10.6005 47.159 10.3661 46.9248C10.1317 46.6906 10 46.3729 10 46.0417C10 45.7104 10.1317 45.3928 10.3661 45.1586C10.6005 44.9243 10.9185 44.7928 11.25 44.7928H17.5C17.8315 44.7928 18.1495 44.9243 18.3839 45.1586C18.6183 45.3928 18.75 45.7104 18.75 46.0417C18.75 46.3729 18.6183 46.6906 18.3839 46.9248C18.1495 47.159 17.8315 47.2906 17.5 47.2906Z" fill="#6984F0"/>
<path d="M48.75 4.82756H20C19.6685 4.82756 19.3505 4.95914 19.1161 5.19336C18.8817 5.42757 18.75 5.74523 18.75 6.07646C18.75 6.40769 18.8817 6.72536 19.1161 6.95957C19.3505 7.19379 19.6685 7.32537 20 7.32537H37.0462C31.9718 9.58307 27.661 13.2619 24.6358 17.9166C21.6105 22.5713 20.0005 28.0024 20.0005 33.5523C20.0005 39.1023 21.6105 44.5334 24.6358 49.1881C27.661 53.8428 31.9718 57.5216 37.0462 59.7793H17.5C17.1685 59.7793 16.8505 59.9109 16.6161 60.1451C16.3817 60.3793 16.25 60.697 16.25 61.0282C16.25 61.3594 16.3817 61.6771 16.6161 61.9113C16.8505 62.1455 17.1685 62.2771 17.5 62.2771H48.75C56.375 62.2771 63.6876 59.2508 69.0793 53.8638C74.471 48.4769 77.5 41.1706 77.5 33.5523C77.5 25.9341 74.471 18.6278 69.0793 13.2409C63.6876 7.85391 56.375 4.82756 48.75 4.82756ZM48.75 59.7793C43.5582 59.7793 38.4831 58.2411 34.1663 55.3593C29.8495 52.4774 26.485 48.3813 24.4982 43.589C22.5114 38.7966 21.9915 33.5232 23.0044 28.4357C24.0172 23.3482 26.5173 18.675 30.1884 15.0071C33.8596 11.3392 38.5369 8.84128 43.6289 7.82931C48.7209 6.81734 53.9989 7.33672 58.7954 9.32178C63.592 11.3068 67.6917 14.6684 70.5761 18.9814C73.4605 23.2944 75 28.3651 75 33.5523C74.9924 40.5058 72.2243 47.1723 67.3031 52.0892C62.382 57.0061 55.7096 59.7717 48.75 59.7793V59.7793Z" fill="#6984F0"/>
<path d="M48.75 9.82288C44.0527 9.82288 39.4609 11.2146 35.5552 13.822C31.6496 16.4294 28.6055 20.1353 26.8079 24.4713C25.0103 28.8072 24.54 33.5784 25.4564 38.1814C26.3728 42.7844 28.6347 47.0125 31.9562 50.3311C35.2777 53.6497 39.5096 55.9097 44.1166 56.8253C48.7237 57.7409 53.499 57.2709 57.8387 55.4749C62.1785 53.6789 65.8877 50.6375 68.4974 46.7353C71.1071 42.833 72.5 38.2452 72.5 33.552C72.4931 27.2608 69.9886 21.2292 65.5361 16.7807C61.0836 12.3321 55.0468 9.82982 48.75 9.82288V9.82288ZM60.4313 51.269L59.2075 49.1458C59.126 49.0027 59.017 48.877 58.8867 48.7761C58.7564 48.6752 58.6075 48.601 58.4484 48.5579C58.2893 48.5147 58.1232 48.5034 57.9598 48.5246C57.7963 48.5459 57.6386 48.5992 57.4959 48.6815C57.3531 48.7639 57.228 48.8737 57.1279 49.0045C57.0278 49.1353 56.9545 49.2847 56.9124 49.4439C56.8703 49.6031 56.8601 49.7691 56.8824 49.9323C56.9047 50.0955 56.9591 50.2527 57.0425 50.3948L58.2613 52.5054C55.6882 53.8006 52.8764 54.5542 50 54.7197V52.2856C50 51.9544 49.8683 51.6367 49.6339 51.4025C49.3995 51.1683 49.0815 51.0367 48.75 51.0367C48.4185 51.0367 48.1005 51.1683 47.8661 51.4025C47.6317 51.6367 47.5 51.9544 47.5 52.2856V54.7197C44.624 54.5558 41.8122 53.8038 39.2388 52.5104L40.4575 50.3997C40.5409 50.2577 40.5953 50.1005 40.6176 49.9373C40.64 49.7741 40.6298 49.6081 40.5876 49.4489C40.5455 49.2897 40.4723 49.1403 40.3721 49.0095C40.272 48.8787 40.1469 48.7689 40.0042 48.6865C39.8614 48.6042 39.7038 48.5509 39.5403 48.5296C39.3768 48.5084 39.2107 48.5197 39.0516 48.5628C38.8926 48.606 38.7436 48.6802 38.6133 48.7811C38.483 48.882 38.374 49.0077 38.2925 49.1508L37.0688 51.274C34.6653 49.6857 32.6072 47.6294 31.0175 45.228L33.1425 44.0054C33.4273 43.8386 33.6344 43.566 33.7188 43.2472C33.8032 42.9283 33.7579 42.5891 33.5929 42.3035C33.4278 42.0179 33.1564 41.8091 32.8378 41.7227C32.5193 41.6363 32.1795 41.6793 31.8925 41.8423L29.78 43.0599C28.483 40.4876 27.7287 37.6765 27.5638 34.8009H30C30.3315 34.8009 30.6495 34.6694 30.8839 34.4351C31.1183 34.2009 31.25 33.8833 31.25 33.552C31.25 33.2208 31.1183 32.9031 30.8839 32.6689C30.6495 32.4347 30.3315 32.3031 30 32.3031H27.5638C27.7278 29.4296 28.4804 26.6203 29.775 24.0491L31.8875 25.2668C32.0297 25.3501 32.187 25.4045 32.3504 25.4268C32.5137 25.4491 32.6798 25.4389 32.8392 25.3968C32.9986 25.3547 33.148 25.2815 33.279 25.1815C33.4099 25.0814 33.5198 24.9565 33.6022 24.8139C33.6846 24.6712 33.738 24.5137 33.7593 24.3504C33.7805 24.1871 33.7692 24.0211 33.726 23.8622C33.6828 23.7032 33.6086 23.5544 33.5076 23.4242C33.4066 23.294 33.2808 23.1851 33.1375 23.1037L31.0125 21.881C32.6022 19.4797 34.6603 17.4234 37.0638 15.8351L38.2875 17.9582C38.4544 18.2427 38.7272 18.4497 39.0464 18.534C39.3655 18.6183 39.705 18.5731 39.9909 18.4082C40.2767 18.2433 40.4857 17.9721 40.5722 17.6538C40.6587 17.3356 40.6157 16.996 40.4525 16.7093L39.2338 14.5987C41.8084 13.3029 44.6219 12.5492 47.5 12.3844V14.8185C47.5 15.1497 47.6317 15.4674 47.8661 15.7016C48.1005 15.9358 48.4185 16.0674 48.75 16.0674C49.0815 16.0674 49.3995 15.9358 49.6339 15.7016C49.8683 15.4674 50 15.1497 50 14.8185V12.3844C52.8761 12.5483 55.6878 13.3003 58.2613 14.5937L57.0425 16.7043C56.9591 16.8464 56.9047 17.0036 56.8824 17.1668C56.8601 17.33 56.8703 17.4959 56.9124 17.6552C56.9545 17.8144 57.0278 17.9637 57.1279 18.0946C57.228 18.2254 57.3531 18.3352 57.4959 18.4175C57.6386 18.4999 57.7963 18.5532 57.9598 18.5744C58.1232 18.5957 58.2893 18.5844 58.4484 18.5412C58.6075 18.4981 58.7564 18.4239 58.8867 18.323C59.017 18.2221 59.126 18.0964 59.2075 17.9532L60.4313 15.8301C62.8347 17.4184 64.8928 19.4747 66.4825 21.876L64.3575 23.0987C64.2142 23.1801 64.0884 23.289 63.9874 23.4192C63.8864 23.5494 63.8122 23.6982 63.769 23.8572C63.7258 24.0161 63.7145 24.1821 63.7358 24.3454C63.757 24.5087 63.8104 24.6662 63.8928 24.8089C63.9752 24.9515 64.0851 25.0765 64.216 25.1765C64.347 25.2765 64.4965 25.3497 64.6558 25.3918C64.8152 25.4339 64.9813 25.4441 65.1447 25.4218C65.308 25.3995 65.4653 25.3451 65.6075 25.2618L67.72 24.0441C69.017 26.6165 69.7713 29.4276 69.9363 32.3031H67.5C67.1685 32.3031 66.8505 32.4347 66.6161 32.6689C66.3817 32.9031 66.25 33.2208 66.25 33.552C66.25 33.8833 66.3817 34.2009 66.6161 34.4351C66.8505 34.6694 67.1685 34.8009 67.5 34.8009H69.9363C69.7722 37.6745 69.0196 40.4838 67.725 43.0549L65.6125 41.8373C65.4703 41.754 65.313 41.6996 65.1497 41.6773C64.9863 41.655 64.8202 41.6652 64.6608 41.7073C64.5015 41.7494 64.352 41.8225 64.221 41.9226C64.0901 42.0226 63.9802 42.1476 63.8978 42.2902C63.8154 42.4328 63.762 42.5904 63.7408 42.7537C63.7195 42.917 63.7308 43.0829 63.774 43.2419C63.8172 43.4009 63.8914 43.5497 63.9924 43.6799C64.0934 43.81 64.2192 43.919 64.3625 44.0004L66.4875 45.223C64.8964 47.6249 62.8365 49.6812 60.4313 51.269V51.269Z" fill="#6984F0"/>
<path d="M51.5915 35.9699C51.9896 35.512 52.2692 34.9635 52.4056 34.3724C52.5421 33.7814 52.5313 33.166 52.3742 32.5801C52.2171 31.9942 51.9185 31.4558 51.5046 31.0121C51.0907 30.5684 50.5742 30.2329 50.0003 30.0351V18.5652C50.0003 18.234 49.8686 17.9163 49.6342 17.6821C49.3998 17.4479 49.0818 17.3163 48.7503 17.3163C48.4188 17.3163 48.1008 17.4479 47.8664 17.6821C47.632 17.9163 47.5003 18.234 47.5003 18.5652V30.0351C46.6669 30.3284 45.9644 30.9069 45.517 31.6681C45.0696 32.4294 44.9063 33.3242 45.0561 34.1942C45.2058 35.0642 45.6588 35.8532 46.335 36.4214C47.0111 36.9896 47.8668 37.3004 48.7503 37.2988C48.979 37.2969 49.2071 37.2739 49.4315 37.2301L52.6678 42.8289C52.8347 43.1134 53.1075 43.3204 53.4266 43.4047C53.7458 43.489 54.0853 43.4438 54.3712 43.2789C54.657 43.114 54.866 42.8428 54.9525 42.5245C55.039 42.2062 54.9959 41.8667 54.8328 41.58L51.5915 35.9699ZM47.5003 33.552C47.5003 33.305 47.5736 33.0636 47.711 32.8582C47.8483 32.6528 48.0435 32.4927 48.2719 32.3982C48.5004 32.3037 48.7517 32.279 48.9942 32.3271C49.2366 32.3753 49.4594 32.4943 49.6342 32.6689C49.809 32.8436 49.928 33.0661 49.9763 33.3084C50.0245 33.5507 49.9998 33.8018 49.9051 34.03C49.8105 34.2582 49.6503 34.4532 49.4448 34.5905C49.2392 34.7277 48.9975 34.801 48.7503 34.801C48.4188 34.801 48.1008 34.6694 47.8664 34.4352C47.632 34.2009 47.5003 33.8833 47.5003 33.552Z" fill="#6984F0"/>
<path d="M13.75 14.8188H23.75C24.0815 14.8188 24.3995 14.6872 24.6339 14.453C24.8683 14.2188 25 13.9011 25 13.5699C25 13.2387 24.8683 12.921 24.6339 12.6868C24.3995 12.4526 24.0815 12.321 23.75 12.321H13.75C13.4185 12.321 13.1005 12.4526 12.8661 12.6868C12.6317 12.921 12.5 13.2387 12.5 13.5699C12.5 13.9011 12.6317 14.2188 12.8661 14.453C13.1005 14.6872 13.4185 14.8188 13.75 14.8188V14.8188Z" fill="#6984F0"/>
<path d="M20 22.3122C20.3315 22.3122 20.6495 22.1806 20.8839 21.9464C21.1183 21.7122 21.25 21.3945 21.25 21.0633C21.25 20.7321 21.1183 20.4144 20.8839 20.1802C20.6495 19.946 20.3315 19.8144 20 19.8144H13.75C13.4185 19.8144 13.1005 19.946 12.8661 20.1802C12.6317 20.4144 12.5 20.7321 12.5 21.0633C12.5 21.3945 12.6317 21.7122 12.8661 21.9464C13.1005 22.1806 13.4185 22.3122 13.75 22.3122H20Z" fill="#6984F0"/>
<path d="M23.75 53.5351C23.75 53.2039 23.6183 52.8862 23.3839 52.652C23.1495 52.4178 22.8315 52.2862 22.5 52.2862H15C14.6685 52.2862 14.3505 52.4178 14.1161 52.652C13.8817 52.8862 13.75 53.2039 13.75 53.5351C13.75 53.8663 13.8817 54.184 14.1161 54.4182C14.3505 54.6524 14.6685 54.784 15 54.784H22.5C22.8315 54.784 23.1495 54.6524 23.3839 54.4182C23.6183 54.184 23.75 53.8663 23.75 53.5351Z" fill="#6984F0"/>
<path d="M10 22.3122H7.5C7.16848 22.3122 6.85054 22.1806 6.61612 21.9464C6.3817 21.7122 6.25 21.3945 6.25 21.0633C6.25 20.7321 6.3817 20.4144 6.61612 20.1802C6.85054 19.946 7.16848 19.8144 7.5 19.8144H10C10.3315 19.8144 10.6495 19.946 10.8839 20.1802C11.1183 20.4144 11.25 20.7321 11.25 21.0633C11.25 21.3945 11.1183 21.7122 10.8839 21.9464C10.6495 22.1806 10.3315 22.3122 10 22.3122V22.3122Z" fill="#6984F0"/>
</svg>
