<svg width="18" height="34" viewBox="0 0 18 34" fill="none" xmlns="http://www.w3.org/2000/svg">
<path fill-rule="evenodd" clip-rule="evenodd" d="M0.615036 1.11504C0.731151 0.998629 0.86909 0.906272 1.02095 0.843256C1.17282 0.78024 1.33562 0.747803 1.50004 0.747803C1.66445 0.747803 1.82726 0.78024 1.97912 0.843256C2.13098 0.906272 2.26892 0.998629 2.38504 1.11504L17.385 16.115C17.5014 16.2312 17.5938 16.3691 17.6568 16.521C17.7198 16.6728 17.7523 16.8356 17.7523 17C17.7523 17.1645 17.7198 17.3273 17.6568 17.4791C17.5938 17.631 17.5014 17.7689 17.385 17.885L2.38504 32.885C2.15032 33.1198 1.83198 33.2516 1.50004 33.2516C1.1681 33.2516 0.849753 33.1198 0.615036 32.885C0.38032 32.6503 0.248457 32.332 0.248457 32C0.248457 31.6681 0.38032 31.3498 0.615036 31.115L14.7325 17L0.615036 2.88504C0.498628 2.76892 0.406271 2.63098 0.343255 2.47912C0.280239 2.32726 0.247803 2.16446 0.247803 2.00004C0.247803 1.83562 0.280239 1.67282 0.343255 1.52095C0.406271 1.36909 0.498628 1.23115 0.615036 1.11504Z" fill="#6984F0"/>
</svg>
