<svg width="161" height="83" viewBox="0 0 161 83" fill="none" xmlns="http://www.w3.org/2000/svg">
<path d="M120.804 38.5362C120.675 31.0692 115.124 24.3363 107.412 24.1655C102.947 24.0731 102.956 30.9953 107.412 31.0922C109.153 31.1292 110.557 31.8219 111.938 33.2673C113.194 34.5695 113.868 36.5967 113.9 38.5316C113.979 42.9878 120.91 42.9971 120.827 38.5316" fill="#263057"/>
<path d="M142.471 38.5361C142.461 28.555 138.817 18.919 132.219 11.4293C129.106 7.90462 125.292 5.0678 121.021 3.09991C116.749 1.13202 112.115 0.0762882 107.412 0.000112711C102.942 -0.0322122 102.947 6.89918 107.412 6.92689C111.037 6.95768 114.615 7.74407 117.918 9.23581C121.401 10.8445 124.514 13.1556 127.061 16.0241C129.622 18.8713 131.669 22.1416 133.111 25.6892C134.73 29.7701 135.556 34.1225 135.544 38.513C135.544 42.9785 142.471 42.9785 142.471 38.513" fill="#263057"/>
<path d="M107.361 19.044C111.979 19.0856 116.024 21.0805 119.331 24.5854C122.72 28.2428 124.535 33.4332 124.567 38.536C124.6 42.9968 131.522 42.9968 131.494 38.536C131.379 25.1119 121.427 12.2604 107.347 12.1219C102.882 12.0711 102.887 18.9978 107.347 19.0486" fill="#263057"/>
<path d="M3.32 71V43H15.44C17.9467 43 20.1067 43.4133 21.92 44.24C23.7333 45.04 25.1333 46.2 26.12 47.72C27.1067 49.24 27.6 51.0533 27.6 53.16C27.6 55.24 27.1067 57.04 26.12 58.56C25.1333 60.0533 23.7333 61.2 21.92 62C20.1067 62.8 17.9467 63.2 15.44 63.2H6.92L9.8 60.36V71H3.32ZM21.12 71L14.12 60.84H21.04L28.12 71H21.12ZM9.8 61.08L6.92 58.04H15.08C17.08 58.04 18.5733 57.6133 19.56 56.76C20.5467 55.88 21.04 54.68 21.04 53.16C21.04 51.6133 20.5467 50.4133 19.56 49.56C18.5733 48.7067 17.08 48.28 15.08 48.28H6.92L9.8 45.2V61.08ZM44.5341 71.44C42.0541 71.44 39.8407 70.9333 37.8941 69.92C35.9474 68.88 34.4141 67.4533 33.2941 65.64C32.1741 63.8267 31.6141 61.7733 31.6141 59.48C31.6141 57.1867 32.1741 55.1467 33.2941 53.36C34.4141 51.5733 35.9474 50.16 37.8941 49.12C39.8407 48.08 42.0541 47.56 44.5341 47.56C47.0141 47.56 49.2274 48.08 51.1741 49.12C53.1207 50.16 54.6541 51.5733 55.7741 53.36C56.8941 55.1467 57.4541 57.1867 57.4541 59.48C57.4541 61.7733 56.8941 63.8267 55.7741 65.64C54.6541 67.4533 53.1207 68.88 51.1741 69.92C49.2274 70.9333 47.0141 71.44 44.5341 71.44ZM44.5341 66.28C45.8141 66.28 46.9341 66 47.8941 65.44C48.8807 64.8533 49.6541 64.04 50.2141 63C50.7741 61.96 51.0541 60.8 51.0541 59.52C51.0541 58.1867 50.7741 57.0133 50.2141 56C49.6541 54.9867 48.8807 54.1867 47.8941 53.6C46.9341 53.0133 45.8141 52.72 44.5341 52.72C43.2807 52.72 42.1607 53.0133 41.1741 53.6C40.1874 54.1867 39.4007 54.9867 38.8141 56C38.2541 57.0133 37.9741 58.1733 37.9741 59.48C37.9741 60.7867 38.2541 61.96 38.8141 63C39.4007 64.04 40.1874 64.8533 41.1741 65.44C42.1607 66 43.2807 66.28 44.5341 66.28ZM80.7669 64C80.7669 65.44 80.3535 66.72 79.5269 67.84C78.7269 68.96 77.5535 69.84 76.0069 70.48C74.4869 71.12 72.6069 71.44 70.3669 71.44C68.5269 71.44 66.7135 71.2133 64.9269 70.76C63.1669 70.3067 61.7402 69.7067 60.6469 68.96L62.8469 64.28C63.8869 64.9733 65.1002 65.52 66.4869 65.92C67.8735 66.32 69.2869 66.52 70.7269 66.52C72.1402 66.52 73.1269 66.32 73.6869 65.92C74.2469 65.52 74.5269 65.0533 74.5269 64.52C74.5269 63.9867 74.2735 63.56 73.7669 63.24C73.2869 62.92 72.6469 62.6667 71.8469 62.48C71.0735 62.2667 70.2069 62.0667 69.2469 61.88C68.3135 61.6933 67.3669 61.4533 66.4069 61.16C65.4735 60.8667 64.6069 60.48 63.8069 60C63.0335 59.4933 62.3935 58.84 61.8869 58.04C61.4069 57.2133 61.1669 56.1867 61.1669 54.96C61.1669 53.52 61.5802 52.2533 62.4069 51.16C63.2602 50.04 64.4602 49.16 66.0069 48.52C67.5535 47.88 69.3935 47.56 71.5269 47.56C72.9669 47.56 74.4335 47.72 75.9269 48.04C77.4202 48.36 78.7269 48.8667 79.8469 49.56L77.8069 54.24C76.7669 53.6 75.6869 53.1467 74.5669 52.88C73.4735 52.6133 72.3802 52.48 71.2869 52.48C69.9535 52.48 68.9802 52.68 68.3669 53.08C67.7535 53.48 67.4469 53.9867 67.4469 54.6C67.4469 55.1333 67.6869 55.56 68.1669 55.88C68.6469 56.2 69.2735 56.4667 70.0469 56.68C70.8469 56.8667 71.7269 57.0533 72.6869 57.24C73.6469 57.4267 74.5935 57.6667 75.5269 57.96C76.4602 58.2267 77.3269 58.6 78.1269 59.08C78.9269 59.56 79.5669 60.2 80.0469 61C80.5269 61.7733 80.7669 62.7733 80.7669 64ZM85.7981 71V43H91.1581L107.678 63.16H105.078V43H111.478V71H106.158L89.5981 50.84H92.1981V71H85.7981ZM124.263 57.04H135.383V61.64H124.263V57.04ZM124.903 66.16H137.183V71H118.663V48H136.743V52.84H124.903V66.16ZM146.908 71V52.92H139.668V48H160.468V52.92H153.228V71H146.908Z" fill="#263057"/>
<line x1="108.3" y1="37.3" x2="108.3" y2="43.7" stroke="#263057" stroke-width="4.6" stroke-linecap="round"/>
</svg>
