<svg width="25" height="25" viewBox="0 0 25 25" fill="none" xmlns="http://www.w3.org/2000/svg">
<path fill-rule="evenodd" clip-rule="evenodd" d="M25 12.4805C25 19.1075 19.4031 24.4805 12.5 24.4805C5.59687 24.4805 0 19.1075 0 12.4805C0 5.85347 5.59687 0.480469 12.5 0.480469C19.4031 0.480469 25 5.85347 25 12.4805ZM12.9479 9.33947C11.7323 9.82447 9.30208 10.8295 5.65833 12.3535C5.06667 12.5795 4.75625 12.8005 4.72812 13.0165C4.68021 13.3825 5.15729 13.5265 5.80521 13.7215C5.89375 13.7485 5.98542 13.7755 6.07917 13.8055C6.71771 14.0045 7.57604 14.2375 8.02188 14.2465C8.42708 14.2545 8.87917 14.0945 9.37813 13.7665C12.7823 11.5595 14.5396 10.4445 14.65 10.4205C14.7281 10.4035 14.8365 10.3815 14.9094 10.4445C14.9823 10.5065 14.975 10.6245 14.9677 10.6565C14.9198 10.8495 13.051 12.5185 12.0823 13.3825C11.7802 13.6515 11.5667 13.8425 11.5229 13.8865C11.425 13.9835 11.325 14.0765 11.2292 14.1655C10.6354 14.7135 10.1917 15.1255 11.2542 15.7975C11.7646 16.1205 12.1729 16.3875 12.5802 16.6535C13.025 16.9445 13.4688 17.2345 14.0437 17.5965C14.1896 17.6885 14.3292 17.7835 14.4656 17.8765C14.9833 18.2315 15.449 18.5495 16.024 18.4995C16.3573 18.4695 16.7031 18.1685 16.8781 17.2695C17.2917 15.1435 18.1062 10.5395 18.2948 8.64147C18.3063 8.48388 18.2993 8.32556 18.274 8.16947C18.2588 8.0434 18.1949 7.9274 18.0948 7.84447C17.9458 7.72747 17.7146 7.70247 17.6104 7.70447C17.1406 7.71247 16.4198 7.95347 12.9479 9.33947Z" fill="white"/>
</svg>
