<svg width="12" height="18" viewBox="0 0 12 18" fill="none" xmlns="http://www.w3.org/2000/svg">
<path d="M4.51117 13.5615C4.61432 13.4583 4.75421 13.4004 4.90009 13.4004H7.1001C7.24597 13.4004 7.38586 13.4583 7.48901 13.5615C7.59216 13.6646 7.65009 13.8045 7.65009 13.9504C7.65009 14.0963 7.59216 14.2362 7.48901 14.3393C7.38586 14.4424 7.24597 14.5004 7.1001 14.5004H4.90009C4.75421 14.5004 4.61432 14.4424 4.51117 14.3393C4.40802 14.2362 4.3501 14.0963 4.3501 13.9504C4.3501 13.8045 4.40802 13.6646 4.51117 13.5615Z" fill="white"/>
<path fill-rule="evenodd" clip-rule="evenodd" d="M1.14435 0.844559C1.55695 0.431976 2.11652 0.200195 2.70001 0.200195H9.29999C9.88348 0.200195 10.4431 0.431976 10.8557 0.844559C11.2682 1.25714 11.5 1.81671 11.5 2.40019V15.6002C11.5 16.1837 11.2682 16.7433 10.8557 17.1558C10.4431 17.5684 9.88348 17.8002 9.29999 17.8002H2.70001C2.11652 17.8002 1.55695 17.5684 1.14435 17.1558C0.731812 16.7433 0.5 16.1837 0.5 15.6002V2.40019C0.5 1.81671 0.731812 1.25714 1.14435 0.844559ZM1.92218 1.62238C1.71588 1.82867 1.59998 2.10846 1.59998 2.40019V15.6002C1.59998 15.8919 1.71588 16.1717 1.92218 16.378C2.12848 16.5843 2.40826 16.7002 2.70001 16.7002H9.29999C9.59174 16.7002 9.87152 16.5843 10.0778 16.378C10.2841 16.1717 10.4 15.8919 10.4 15.6002V2.40019C10.4 2.10846 10.2841 1.82867 10.0778 1.62238C9.87152 1.41609 9.59174 1.3002 9.29999 1.3002H2.70001C2.40826 1.3002 2.12848 1.41609 1.92218 1.62238Z" fill="white"/>
</svg>
