<svg width="68" height="68" viewBox="0 0 68 68" fill="none" xmlns="http://www.w3.org/2000/svg">
<path d="M66.867 1.13333C66.8669 1.13333 66.8666 1.13333 66.8665 1.13333H49.8665C49.2406 1.13333 48.7333 1.64064 48.7333 2.26652C48.7333 2.56714 48.8527 2.85543 49.0652 3.06793L53.9306 7.93333L51.5193 10.3445C46.4642 6.55888 40.3153 4.51931 33.9998 4.53333C17.7496 4.50939 4.55708 17.6634 4.53313 33.9136C4.52903 36.6948 4.91932 39.4624 5.69225 42.1339L0.389384 46.745C-0.0754246 47.1498 -0.13195 47.8516 0.262167 48.3255L5.92884 55.1255C6.12561 55.3613 6.40951 55.5073 6.71579 55.5299C6.74342 55.5322 6.77218 55.5333 6.7998 55.5333C7.07719 55.5333 7.34508 55.4315 7.55248 55.2472L10.9019 52.2699C20.9431 65.0594 39.4511 67.2874 52.2407 57.2461C64.3146 47.7666 67.0793 30.6013 58.592 17.8103L61.1998 15.2027L66.0652 20.0681C66.5078 20.5106 67.2253 20.5106 67.6679 20.0682C67.8805 19.8557 67.9998 19.5674 67.9998 19.2668V2.26666C68 1.64092 67.4928 1.13347 66.867 1.13333ZM33.9998 6.8C35.9048 6.80581 37.804 7.01023 39.6665 7.41016V9.63333C39.6661 9.94613 39.4126 10.1996 39.0998 10.2H34.5665C33.0023 10.2017 31.7348 11.4692 31.7331 13.0333V15.3C31.7327 15.6128 31.4793 15.8662 31.1665 15.8667H26.6331C26.3203 15.8662 26.0669 15.6128 26.0665 15.3C26.0648 13.7359 24.7973 12.4684 23.2331 12.4667H22.0998C20.5357 12.4684 19.2682 13.7359 19.2665 15.3V18.7C19.266 19.0128 19.0126 19.2662 18.6998 19.2667H11.1538C16.1572 11.5002 24.7613 6.80524 33.9998 6.8ZM7.98314 26.0667H15.2998C15.6126 26.0671 15.866 26.3205 15.8665 26.6333V27.7667C15.866 28.0795 15.6126 28.3329 15.2998 28.3333H14.1665C12.6023 28.335 11.3348 29.6025 11.3331 31.1667C11.3327 31.4795 11.0793 31.7329 10.7665 31.7333H6.90152C7.05891 29.8112 7.42144 27.9116 7.98314 26.0667ZM10.7665 34C12.3306 33.9983 13.5981 32.7308 13.5998 31.1667C13.6002 30.8539 13.8537 30.6004 14.1665 30.6H15.2998C16.8639 30.5983 18.1314 29.3308 18.1331 27.7667V26.6333C18.1314 25.0692 16.8639 23.8017 15.2998 23.8H8.79164C9.10599 23.0258 9.45464 22.2703 9.83728 21.5333H18.6998C20.2639 21.5316 21.5314 20.2641 21.5331 18.7V15.3C21.5336 14.9872 21.787 14.7338 22.0998 14.7333H23.2331C23.5459 14.7338 23.7994 14.9872 23.7998 15.3C23.8015 16.8641 25.069 18.1316 26.6331 18.1333H31.1665C32.7306 18.1316 33.9981 16.8641 33.9998 15.3V13.0333C34.0002 12.7205 34.2537 12.4671 34.5665 12.4667H39.0998C40.664 12.465 41.9314 11.1975 41.9331 9.63333V7.99311C44.7904 8.86578 47.4824 10.2082 49.8986 11.9653L32.8665 28.9975L28.0011 24.1321C27.5803 23.7105 26.905 23.6871 26.4561 24.0784L7.58974 40.4839C7.06727 38.3621 6.80207 36.1852 6.7998 34H10.7665ZM20.5673 57.625C17.491 55.8759 14.7847 53.5445 12.5996 50.7609L19.981 44.2H26.0665C26.6921 44.2006 27.1992 44.7077 27.1998 45.3333C27.2086 47.2074 28.7257 48.7245 30.5998 48.7333C30.9054 48.7328 31.1978 48.8583 31.4077 49.0803C31.6184 49.2874 31.7357 49.5713 31.7331 49.8667V52.1333C31.7326 52.7589 31.2254 53.2661 30.5998 53.2667H26.0665C23.4462 53.2733 21.1722 55.0755 20.5673 57.625ZM34.1147 61.197C34.6579 58.562 36.9761 56.6702 39.6665 56.6667H43.0665C44.9443 56.6667 46.4665 55.1445 46.4665 53.2667C46.4665 51.3889 44.9443 49.8667 43.0665 49.8667H40.2331C39.9202 49.8667 39.6665 49.6129 39.6665 49.3C39.6665 48.9871 39.9202 48.7333 40.2331 48.7333H56.8458C51.864 56.4645 43.3118 61.1538 34.1147 61.197ZM58.1623 46.4667H40.2331C38.6683 46.4667 37.3998 47.7351 37.3998 49.3C37.3998 50.8648 38.6683 52.1333 40.2331 52.1333H43.0665C43.6924 52.1333 44.1998 52.6408 44.1998 53.2667C44.1998 53.8925 43.6924 54.4 43.0665 54.4H39.6665C35.7648 54.4071 32.4466 57.2482 31.8387 61.1022C28.6726 60.846 25.5757 60.0368 22.689 58.7112C22.8028 56.928 24.2796 55.5384 26.0665 55.5333H30.5998C32.4767 55.5313 33.9978 54.0103 33.9998 52.1333V49.8667C33.991 47.9926 32.4739 46.4754 30.5998 46.4667C30.2942 46.4672 30.0018 46.3417 29.7919 46.1197C29.5812 45.9126 29.4639 45.6287 29.4665 45.3333C29.4645 43.4564 27.9434 41.9353 26.0665 41.9333H22.531L27.1545 37.8239L32.0652 42.7346C32.5075 43.1772 33.2249 43.1773 33.6673 42.735C33.6675 42.7349 33.6676 42.7347 33.6677 42.7346L46.9358 29.4667H51.5665C52.5053 29.4667 53.2665 30.2278 53.2665 31.1667C53.2665 32.1055 52.5053 32.8667 51.5665 32.8667H47.5998C45.7258 32.876 44.2092 34.3927 44.1998 36.2667C44.2018 38.1436 45.7229 39.6647 47.5998 39.6667H60.6018C60.0971 42.0325 59.2765 44.3196 58.1623 46.4667ZM59.7732 25.2964C61.0904 29.1867 61.5031 33.3262 60.9798 37.4001H47.5998C46.9742 37.3996 46.467 36.8924 46.4665 36.2668C46.4658 35.9617 46.5911 35.6697 46.8129 35.46C47.0198 35.2488 47.304 35.1308 47.5998 35.1335H51.5665C53.7572 35.1335 55.5331 33.3575 55.5331 31.1668C55.5331 28.9761 53.7572 27.2001 51.5665 27.2001H49.2023L51.469 24.9335H59.6354C59.6787 25.0553 59.7317 25.1736 59.7732 25.2964ZM58.7078 22.6667H53.7358L56.9559 19.4466C57.6115 20.4793 58.1968 21.5551 58.7078 22.6667ZM65.7331 16.5308L62.0011 12.7987C61.5588 12.3562 60.8414 12.356 60.399 12.7983C60.3988 12.7984 60.3987 12.7986 60.3985 12.7987L32.8665 40.3308L28.0011 35.4654C27.5769 35.0411 26.8956 35.021 26.4471 35.4195L6.92149 52.7758L2.7147 47.7272L27.1455 26.4822L32.0652 31.4011C32.5075 31.8437 33.2249 31.8438 33.6673 31.4015C33.6675 31.4014 33.6676 31.4013 33.6677 31.4011L56.3344 8.73446C56.777 8.29217 56.7771 7.57477 56.3348 7.13235C56.3347 7.13221 56.3346 7.13206 56.3344 7.13192L52.6025 3.4H65.7331V16.5308Z" fill="#6984F0"/>
<path d="M62.3331 62.3333H60.0664V64.6H62.3331V62.3333Z" fill="#6984F0"/>
<path d="M68.0001 65.7333H65.7334V68H68.0001V65.7333Z" fill="#6984F0"/>
<path d="M65.7335 56.6667H63.4668V58.9333H65.7335V56.6667Z" fill="#6984F0"/>
<path d="M56.667 65.7333H54.4004V68H56.667V65.7333Z" fill="#6984F0"/>
<path d="M68.0001 49.8667H65.7334V52.1333H68.0001V49.8667Z" fill="#6984F0"/>
<path d="M2.26667 0H0V2.26667H2.26667V0Z" fill="#6984F0"/>
<path d="M7.93366 2.26666H5.66699V4.53333H7.93366V2.26666Z" fill="#6984F0"/>
<path d="M3.40046 6.8H1.13379V9.06667H3.40046V6.8Z" fill="#6984F0"/>
<path d="M14.7335 0H12.4668V2.26667H14.7335V0Z" fill="#6984F0"/>
<path d="M7.93366 9.06667H5.66699V11.3333H7.93366V9.06667Z" fill="#6984F0"/>
<path d="M2.26667 13.6H0V15.8667H2.26667V13.6Z" fill="#6984F0"/>
</svg>
