<svg width="71" height="85" viewBox="0 0 71 85" fill="none" xmlns="http://www.w3.org/2000/svg">
<path fill-rule="evenodd" clip-rule="evenodd" d="M26.386 0.937045C15.975 3.88905 7.33 11.372 2.614 21.513C0.441999 26.184 0 28.568 0 35.633C0 48.744 2.298 52.7911 19.706 70.3501C27.495 78.2061 34.583 84.633 35.457 84.633C36.331 84.633 43.419 78.2061 51.208 70.3501C68.605 52.8031 70.902 48.758 70.935 35.612C70.955 27.996 70.612 26.39 67.707 20.489C61.778 8.44605 50.739 0.926046 37.747 0.0820456C33.806 -0.173954 29.039 0.185045 26.386 0.937045ZM43.535 21.907C54.175 29.077 54.175 42.189 43.535 49.359C33.723 55.972 19.457 47.84 19.457 35.633C19.457 23.426 33.723 15.294 43.535 21.907Z" fill="#263057"/>
</svg>
