<svg width="18" height="24" viewBox="0 0 18 24" fill="none" xmlns="http://www.w3.org/2000/svg">
<path d="M8.99966 3.85352C8.18118 3.85352 7.38107 4.09622 6.70053 4.55095C6.01998 5.00568 5.48956 5.652 5.17634 6.40818C4.86312 7.16436 4.78117 7.99644 4.94085 8.7992C5.10053 9.60196 5.49466 10.3393 6.07342 10.9181C6.65218 11.4969 7.38956 11.891 8.19231 12.0507C8.99507 12.2103 9.82715 12.1284 10.5833 11.8152C11.3395 11.502 11.9858 10.9715 12.4406 10.291C12.8953 9.61044 13.138 8.81033 13.138 7.99185C13.138 6.8943 12.702 5.84169 11.9259 5.06561C11.1498 4.28952 10.0972 3.85352 8.99966 3.85352ZM8.99966 10.6857C8.46686 10.6857 7.94603 10.5277 7.50302 10.2317C7.06001 9.93573 6.71473 9.515 6.51083 9.02276C6.30694 8.53051 6.25359 7.98886 6.35754 7.4663C6.46148 6.94373 6.71805 6.46373 7.0948 6.08698C7.47154 5.71023 7.95155 5.45367 8.47411 5.34972C8.99667 5.24578 9.53833 5.29913 10.0306 5.50302C10.5228 5.70691 10.9435 6.0522 11.2395 6.4952C11.5356 6.93821 11.6936 7.45905 11.6936 7.99185C11.6916 8.70506 11.407 9.38841 10.902 9.89205C10.397 10.3957 9.71288 10.6785 8.99966 10.6785V10.6857Z" fill="#263057"/>
<path d="M8.99997 0.444336C6.75039 0.446215 4.59295 1.33822 2.99888 2.92553C1.40481 4.51283 0.503635 6.66645 0.492188 8.916C0.492187 12.2888 2.38441 15.1127 3.77108 17.171L4.02385 17.5466C5.4035 19.5461 6.88355 21.4745 8.4583 23.3243L9.00719 23.9671L9.55608 23.3243C11.1306 21.4744 12.6107 19.546 13.9905 17.5466L14.2433 17.1638C15.6227 15.1054 17.515 12.2888 17.515 8.916C17.5035 6.6652 16.6013 4.51049 15.0057 2.92298C13.4101 1.33547 11.2508 0.444307 8.99997 0.444336ZM13.0372 16.3332L12.7772 16.716C11.535 18.5793 9.8883 20.6666 8.99997 21.6993C8.14774 20.6666 6.46497 18.5793 5.22274 16.716L4.96997 16.3332C3.69163 14.4266 1.93663 11.8193 1.93663 8.88711C1.93663 7.95954 2.11933 7.04106 2.4743 6.18409C2.82926 5.32713 3.34954 4.54847 4.00543 3.89258C4.66133 3.23669 5.43998 2.71641 6.29694 2.36144C7.15391 2.00648 8.0724 1.82378 8.99997 1.82378C9.92754 1.82378 10.846 2.00648 11.703 2.36144C12.5599 2.71641 13.3386 3.23669 13.9945 3.89258C14.6504 4.54847 15.1707 5.32713 15.5256 6.18409C15.8806 7.04106 16.0633 7.95954 16.0633 8.88711C16.0633 11.8482 14.3155 14.4554 13.0372 16.3332Z" fill="#263057"/>
</svg>
