<svg width="15" height="21" viewBox="0 0 15 21" fill="none" xmlns="http://www.w3.org/2000/svg">
<path d="M11.4375 1.3125C11.7856 1.3125 12.1194 1.45078 12.3656 1.69692C12.6117 1.94306 12.75 2.2769 12.75 2.625V18.375C12.75 18.7231 12.6117 19.0569 12.3656 19.3031C12.1194 19.5492 11.7856 19.6875 11.4375 19.6875H3.5625C3.2144 19.6875 2.88056 19.5492 2.63442 19.3031C2.38828 19.0569 2.25 18.7231 2.25 18.375V2.625C2.25 2.2769 2.38828 1.94306 2.63442 1.69692C2.88056 1.45078 3.2144 1.3125 3.5625 1.3125H11.4375ZM3.5625 0C2.86631 0 2.19863 0.276562 1.70634 0.768845C1.21406 1.26113 0.9375 1.92881 0.9375 2.625V18.375C0.9375 19.0712 1.21406 19.7389 1.70634 20.2312C2.19863 20.7234 2.86631 21 3.5625 21H11.4375C12.1337 21 12.8014 20.7234 13.2937 20.2312C13.7859 19.7389 14.0625 19.0712 14.0625 18.375V2.625C14.0625 1.92881 13.7859 1.26113 13.2937 0.768845C12.8014 0.276562 12.1337 0 11.4375 0L3.5625 0Z" fill="#263057"/>
<path d="M7.5 18.375C7.8481 18.375 8.18194 18.2367 8.42808 17.9906C8.67422 17.7444 8.8125 17.4106 8.8125 17.0625C8.8125 16.7144 8.67422 16.3806 8.42808 16.1344C8.18194 15.8883 7.8481 15.75 7.5 15.75C7.1519 15.75 6.81806 15.8883 6.57192 16.1344C6.32578 16.3806 6.1875 16.7144 6.1875 17.0625C6.1875 17.4106 6.32578 17.7444 6.57192 17.9906C6.81806 18.2367 7.1519 18.375 7.5 18.375Z" fill="#263057"/>
</svg>
