<svg width="18" height="34" viewBox="0 0 18 34" fill="none" xmlns="http://www.w3.org/2000/svg">
<path fill-rule="evenodd" clip-rule="evenodd" d="M17.385 1.11504C17.5014 1.23115 17.5938 1.36909 17.6568 1.52095C17.7198 1.67282 17.7523 1.83562 17.7523 2.00004C17.7523 2.16446 17.7198 2.32726 17.6568 2.47912C17.5938 2.63098 17.5014 2.76892 17.385 2.88504L3.26754 17L17.385 31.115C17.6198 31.3498 17.7516 31.6681 17.7516 32C17.7516 32.332 17.6198 32.6503 17.385 32.885C17.1503 33.1198 16.832 33.2516 16.5 33.2516C16.1681 33.2516 15.8498 33.1198 15.615 32.885L0.615036 17.885C0.498628 17.7689 0.406271 17.631 0.343255 17.4791C0.280239 17.3273 0.247803 17.1645 0.247803 17C0.247803 16.8356 0.280239 16.6728 0.343255 16.521C0.406271 16.3691 0.498628 16.2312 0.615036 16.115L15.615 1.11504C15.7311 0.998629 15.8691 0.906272 16.021 0.843256C16.1728 0.78024 16.3356 0.747803 16.5 0.747803C16.6645 0.747803 16.8273 0.78024 16.9791 0.843256C17.131 0.906272 17.2689 0.998629 17.385 1.11504Z" fill="#6984F0"/>
</svg>
